<svg id="visual" viewBox="0 0 960 540" width="960" height="540" xmlns="http://www.w3.org/2000/svg" xmlns:xlink="http://www.w3.org/1999/xlink" version="1.1"><rect x="0" y="0" width="960" height="540" fill="#00060b"></rect><defs><linearGradient id="grad1_0" x1="43.8%" y1="0%" x2="100%" y2="100%"><stop offset="14.444444444444446%" stop-color="#fc0101" stop-opacity="1"></stop><stop offset="85.55555555555554%" stop-color="#fc0101" stop-opacity="1"></stop></linearGradient></defs><defs><linearGradient id="grad1_1" x1="43.8%" y1="0%" x2="100%" y2="100%"><stop offset="14.444444444444446%" stop-color="#fc0101" stop-opacity="1"></stop><stop offset="85.55555555555554%" stop-color="#e50042" stop-opacity="1"></stop></linearGradient></defs><defs><linearGradient id="grad1_2" x1="43.8%" y1="0%" x2="100%" y2="100%"><stop offset="14.444444444444446%" stop-color="#bb0062" stop-opacity="1"></stop><stop offset="85.55555555555554%" stop-color="#e50042" stop-opacity="1"></stop></linearGradient></defs><defs><linearGradient id="grad1_3" x1="43.8%" y1="0%" x2="100%" y2="100%"><stop offset="14.444444444444446%" stop-color="#bb0062" stop-opacity="1"></stop><stop offset="85.55555555555554%" stop-color="#850f70" stop-opacity="1"></stop></linearGradient></defs><defs><linearGradient id="grad1_4" x1="43.8%" y1="0%" x2="100%" y2="100%"><stop offset="14.444444444444446%" stop-color="#4d2569" stop-opacity="1"></stop><stop offset="85.55555555555554%" stop-color="#850f70" stop-opacity="1"></stop></linearGradient></defs><defs><linearGradient id="grad1_5" x1="43.8%" y1="0%" x2="100%" y2="100%"><stop offset="14.444444444444446%" stop-color="#4d2569" stop-opacity="1"></stop><stop offset="85.55555555555554%" stop-color="#1b2451" stop-opacity="1"></stop></linearGradient></defs><defs><linearGradient id="grad1_6" x1="43.8%" y1="0%" x2="100%" y2="100%"><stop offset="14.444444444444446%" stop-color="#031a30" stop-opacity="1"></stop><stop offset="85.55555555555554%" stop-color="#1b2451" stop-opacity="1"></stop></linearGradient></defs><defs><linearGradient id="grad1_7" x1="43.8%" y1="0%" x2="100%" y2="100%"><stop offset="14.444444444444446%" stop-color="#031a30" stop-opacity="1"></stop><stop offset="85.55555555555554%" stop-color="#00060b" stop-opacity="1"></stop></linearGradient></defs><defs><linearGradient id="grad2_0" x1="0%" y1="0%" x2="56.3%" y2="100%"><stop offset="14.444444444444446%" stop-color="#fc0101" stop-opacity="1"></stop><stop offset="85.55555555555554%" stop-color="#fc0101" stop-opacity="1"></stop></linearGradient></defs><defs><linearGradient id="grad2_1" x1="0%" y1="0%" x2="56.3%" y2="100%"><stop offset="14.444444444444446%" stop-color="#e50042" stop-opacity="1"></stop><stop offset="85.55555555555554%" stop-color="#fc0101" stop-opacity="1"></stop></linearGradient></defs><defs><linearGradient id="grad2_2" x1="0%" y1="0%" x2="56.3%" y2="100%"><stop offset="14.444444444444446%" stop-color="#e50042" stop-opacity="1"></stop><stop offset="85.55555555555554%" stop-color="#bb0062" stop-opacity="1"></stop></linearGradient></defs><defs><linearGradient id="grad2_3" x1="0%" y1="0%" x2="56.3%" y2="100%"><stop offset="14.444444444444446%" stop-color="#850f70" stop-opacity="1"></stop><stop offset="85.55555555555554%" stop-color="#bb0062" stop-opacity="1"></stop></linearGradient></defs><defs><linearGradient id="grad2_4" x1="0%" y1="0%" x2="56.3%" y2="100%"><stop offset="14.444444444444446%" stop-color="#850f70" stop-opacity="1"></stop><stop offset="85.55555555555554%" stop-color="#4d2569" stop-opacity="1"></stop></linearGradient></defs><defs><linearGradient id="grad2_5" x1="0%" y1="0%" x2="56.3%" y2="100%"><stop offset="14.444444444444446%" stop-color="#1b2451" stop-opacity="1"></stop><stop offset="85.55555555555554%" stop-color="#4d2569" stop-opacity="1"></stop></linearGradient></defs><defs><linearGradient id="grad2_6" x1="0%" y1="0%" x2="56.3%" y2="100%"><stop offset="14.444444444444446%" stop-color="#1b2451" stop-opacity="1"></stop><stop offset="85.55555555555554%" stop-color="#031a30" stop-opacity="1"></stop></linearGradient></defs><defs><linearGradient id="grad2_7" x1="0%" y1="0%" x2="56.3%" y2="100%"><stop offset="14.444444444444446%" stop-color="#00060b" stop-opacity="1"></stop><stop offset="85.55555555555554%" stop-color="#031a30" stop-opacity="1"></stop></linearGradient></defs><g transform="translate(960, 0)"><path d="M0 540C-27.7 514.4 -55.4 488.9 -84.2 477.6C-113 466.4 -142.9 469.5 -166.2 456.7C-189.5 443.9 -206.2 415.3 -229 396.6C-251.8 378 -280.9 369.4 -287.3 342.4C-293.8 315.4 -277.7 270 -311 261C-344.3 251.9 -427.1 279.2 -467.7 270C-508.2 260.8 -506.7 215.3 -482.1 175.5C-457.4 135.6 -409.8 101.6 -415.6 73.3C-421.4 45 -480.7 22.5 -540 0L0 0Z" fill="#03121e"></path><path d="M0 472.5C-24.2 450.1 -48.5 427.8 -73.7 417.9C-98.9 408.1 -125.1 410.8 -145.4 399.6C-165.8 388.4 -180.4 363.4 -200.4 347.1C-220.4 330.8 -245.8 323.2 -251.4 299.6C-257.1 276 -243 236.3 -272.1 228.4C-301.3 220.4 -373.7 244.3 -409.2 236.3C-444.7 228.2 -443.3 188.4 -421.8 153.5C-400.3 118.7 -358.6 88.9 -363.6 64.1C-368.7 39.4 -420.6 19.7 -472.5 0L0 0Z" fill="#092041"></path><path d="M0 405C-20.8 385.8 -41.6 366.7 -63.2 358.2C-84.8 349.8 -107.2 352.1 -124.7 342.5C-142.1 332.9 -154.6 311.4 -171.7 297.5C-188.9 283.5 -210.6 277.1 -215.5 256.8C-220.3 236.6 -208.3 202.5 -233.3 195.7C-258.3 188.9 -320.3 209.4 -350.7 202.5C-381.2 195.6 -380 161.5 -361.5 131.6C-343.1 101.7 -307.3 76.2 -311.7 55C-316.1 33.7 -360.5 16.9 -405 0L0 0Z" fill="#32265f"></path><path d="M0 337.5C-17.3 321.5 -34.6 305.5 -52.6 298.5C-70.6 291.5 -89.3 293.4 -103.9 285.4C-118.4 277.4 -128.9 259.5 -143.1 247.9C-157.4 236.3 -175.5 230.9 -179.6 214C-183.6 197.1 -173.6 168.8 -194.4 163.1C-215.2 157.4 -266.9 174.5 -292.3 168.8C-317.6 163 -316.7 134.5 -301.3 109.7C-285.9 84.8 -256.1 63.5 -259.7 45.8C-263.4 28.1 -300.4 14.1 -337.5 0L0 0Z" fill="#691f6f"></path><path d="M0 270C-13.9 257.2 -27.7 244.4 -42.1 238.8C-56.5 233.2 -71.5 234.7 -83.1 228.3C-94.8 222 -103.1 207.6 -114.5 198.3C-125.9 189 -140.4 184.7 -143.7 171.2C-146.9 157.7 -138.8 135 -155.5 130.5C-172.2 126 -213.5 139.6 -233.8 135C-254.1 130.4 -253.3 107.6 -241 87.7C-228.7 67.8 -204.9 50.8 -207.8 36.6C-210.7 22.5 -240.4 11.2 -270 0L0 0Z" fill="#a1006b"></path><path d="M0 202.5C-10.4 192.9 -20.8 183.3 -31.6 179.1C-42.4 174.9 -53.6 176.1 -62.3 171.3C-71.1 166.5 -77.3 155.7 -85.9 148.7C-94.4 141.8 -105.3 138.5 -107.7 128.4C-110.2 118.3 -104.1 101.3 -116.6 97.9C-129.1 94.5 -160.2 104.7 -175.4 101.3C-190.6 97.8 -190 80.7 -180.8 65.8C-171.5 50.9 -153.7 38.1 -155.8 27.5C-158 16.9 -180.3 8.4 -202.5 0L0 0Z" fill="#d20054"></path><path d="M0 135C-6.9 128.6 -13.9 122.2 -21.1 119.4C-28.3 116.6 -35.7 117.4 -41.6 114.2C-47.4 111 -51.5 103.8 -57.2 99.2C-63 94.5 -70.2 92.4 -71.8 85.6C-73.4 78.9 -69.4 67.5 -77.8 65.2C-86.1 63 -106.8 69.8 -116.9 67.5C-127.1 65.2 -126.7 53.8 -120.5 43.9C-114.4 33.9 -102.4 25.4 -103.9 18.3C-105.4 11.2 -120.2 5.6 -135 0L0 0Z" fill="#f3002b"></path><path d="M0 67.5C-3.5 64.3 -6.9 61.1 -10.5 59.7C-14.1 58.3 -17.9 58.7 -20.8 57.1C-23.7 55.5 -25.8 51.9 -28.6 49.6C-31.5 47.3 -35.1 46.2 -35.9 42.8C-36.7 39.4 -34.7 33.8 -38.9 32.6C-43 31.5 -53.4 34.9 -58.5 33.8C-63.5 32.6 -63.3 26.9 -60.3 21.9C-57.2 17 -51.2 12.7 -51.9 9.2C-52.7 5.6 -60.1 2.8 -67.5 0L0 0Z" fill="#fc0101"></path></g><g transform="translate(0, 540)"><path d="M0 -540C28.3 -524.1 56.5 -508.2 89.4 -507.2C122.3 -506.1 159.8 -519.9 183.7 -504.6C207.5 -489.3 217.6 -444.9 249 -431.3C280.4 -417.7 333 -434.8 343.2 -409.1C353.5 -383.3 321.4 -314.7 347.8 -291.8C374.1 -269 459 -291.9 467.7 -270C476.4 -248.1 408.9 -181.3 396.6 -144.3C384.2 -107.4 426.8 -100.2 459.9 -81.1C493 -62 516.5 -31 540 0L0 0Z" fill="#03121e"></path><path d="M0 -472.5C24.7 -458.6 49.5 -444.7 78.3 -443.8C107 -442.9 139.9 -454.9 160.7 -441.5C181.6 -428.1 190.4 -389.3 217.9 -377.4C245.3 -365.4 291.4 -380.5 300.3 -357.9C309.3 -335.4 281.2 -275.3 304.3 -255.3C327.4 -235.4 401.6 -255.4 409.2 -236.3C416.8 -217.1 357.8 -158.6 347 -126.3C336.1 -93.9 373.5 -87.7 402.4 -71C431.4 -54.3 451.9 -27.1 472.5 0L0 0Z" fill="#092041"></path><path d="M0 -405C21.2 -393.1 42.4 -381.2 67.1 -380.4C91.7 -379.6 119.9 -389.9 137.7 -378.5C155.6 -367 163.2 -333.7 186.7 -323.5C210.3 -313.2 249.7 -326.1 257.4 -306.8C265.1 -287.5 241.1 -236 260.8 -218.9C280.6 -201.7 344.2 -218.9 350.7 -202.5C357.3 -186.1 306.7 -136 297.4 -108.2C288.1 -80.5 320.1 -75.1 344.9 -60.8C369.7 -46.5 387.4 -23.3 405 0L0 0Z" fill="#32265f"></path><path d="M0 -337.5C17.7 -327.6 35.3 -317.6 55.9 -317C76.5 -316.3 99.9 -325 114.8 -315.4C129.7 -305.8 136 -278.1 155.6 -269.6C175.2 -261 208.1 -271.8 214.5 -255.7C220.9 -239.6 200.9 -196.7 217.4 -182.4C233.8 -168.1 286.8 -182.4 292.3 -168.8C297.7 -155.1 255.6 -113.3 247.8 -90.2C240.1 -67.1 266.8 -62.6 287.4 -50.7C308.1 -38.8 322.8 -19.4 337.5 0L0 0Z" fill="#691f6f"></path><path d="M0 -270C14.1 -262.1 28.3 -254.1 44.7 -253.6C61.2 -253.1 79.9 -260 91.8 -252.3C103.7 -244.7 108.8 -222.5 124.5 -215.6C140.2 -208.8 166.5 -217.4 171.6 -204.5C176.8 -191.7 160.7 -157.3 173.9 -145.9C187.1 -134.5 229.5 -146 233.8 -135C238.2 -124 204.5 -90.7 198.3 -72.2C192.1 -53.7 213.4 -50.1 230 -40.5C246.5 -31 258.2 -15.5 270 0L0 0Z" fill="#a1006b"></path><path d="M0 -202.5C10.6 -196.5 21.2 -190.6 33.5 -190.2C45.9 -189.8 59.9 -195 68.9 -189.2C77.8 -183.5 81.6 -166.8 93.4 -161.7C105.1 -156.6 124.9 -163.1 128.7 -153.4C132.6 -143.7 120.5 -118 130.4 -109.4C140.3 -100.9 172.1 -109.5 175.4 -101.3C178.6 -93 153.3 -68 148.7 -54.1C144.1 -40.3 160.1 -37.6 172.5 -30.4C184.9 -23.3 193.7 -11.6 202.5 0L0 0Z" fill="#d20054"></path><path d="M0 -135C7.1 -131 14.1 -127.1 22.4 -126.8C30.6 -126.5 40 -130 45.9 -126.2C51.9 -122.3 54.4 -111.2 62.2 -107.8C70.1 -104.4 83.2 -108.7 85.8 -102.3C88.4 -95.8 80.4 -78.7 86.9 -73C93.5 -67.2 114.7 -73 116.9 -67.5C119.1 -62 102.2 -45.3 99.1 -36.1C96 -26.8 106.7 -25 115 -20.3C123.2 -15.5 129.1 -7.8 135 0L0 0Z" fill="#f3002b"></path><path d="M0 -67.5C3.5 -65.5 7.1 -63.5 11.2 -63.4C15.3 -63.3 20 -65 23 -63.1C25.9 -61.2 27.2 -55.6 31.1 -53.9C35 -52.2 41.6 -54.4 42.9 -51.1C44.2 -47.9 40.2 -39.3 43.5 -36.5C46.8 -33.6 57.4 -36.5 58.5 -33.8C59.5 -31 51.1 -22.7 49.6 -18C48 -13.4 53.4 -12.5 57.5 -10.1C61.6 -7.8 64.6 -3.9 67.5 0L0 0Z" fill="#fc0101"></path></g></svg>