<svg id="visual" viewBox="0 0 960 540" width="960" height="540" xmlns="http://www.w3.org/2000/svg" xmlns:xlink="http://www.w3.org/1999/xlink" version="1.1"><rect x="0" y="0" width="960" height="540" fill="#5c2700"></rect><path d="M0 324L74 336L148 302L222 364L295 248L369 319L443 392L517 366L591 326L665 360L738 389L812 354L886 316L960 288L960 541L886 541L812 541L738 541L665 541L591 541L517 541L443 541L369 541L295 541L222 541L148 541L74 541L0 541Z" fill="#f5bb0a"></path><path d="M0 329L74 353L148 339L222 405L295 281L369 367L443 350L517 299L591 379L665 343L738 305L812 404L886 348L960 391L960 541L886 541L812 541L738 541L665 541L591 541L517 541L443 541L369 541L295 541L222 541L148 541L74 541L0 541Z" fill="#eaa100"></path><path d="M0 353L74 356L148 374L222 386L295 340L369 320L443 388L517 377L591 395L665 336L738 393L812 324L886 399L960 344L960 541L886 541L812 541L738 541L665 541L591 541L517 541L443 541L369 541L295 541L222 541L148 541L74 541L0 541Z" fill="#dd8800"></path><path d="M0 412L74 419L148 398L222 403L295 372L369 441L443 367L517 401L591 345L665 344L738 384L812 402L886 394L960 357L960 541L886 541L812 541L738 541L665 541L591 541L517 541L443 541L369 541L295 541L222 541L148 541L74 541L0 541Z" fill="#cf7000"></path><path d="M0 395L74 414L148 447L222 402L295 410L369 454L443 415L517 461L591 421L665 427L738 383L812 427L886 389L960 405L960 541L886 541L812 541L738 541L665 541L591 541L517 541L443 541L369 541L295 541L222 541L148 541L74 541L0 541Z" fill="#bf5800"></path><path d="M0 445L74 413L148 455L222 446L295 466L369 462L443 420L517 411L591 423L665 415L738 481L812 478L886 431L960 438L960 541L886 541L812 541L738 541L665 541L591 541L517 541L443 541L369 541L295 541L222 541L148 541L74 541L0 541Z" fill="#ad4000"></path><path d="M0 445L74 455L148 490L222 465L295 475L369 482L443 458L517 495L591 464L665 475L738 491L812 480L886 471L960 479L960 541L886 541L812 541L738 541L665 541L591 541L517 541L443 541L369 541L295 541L222 541L148 541L74 541L0 541Z" fill="#9a2602"></path><path d="M0 515L74 492L148 493L222 499L295 480L369 514L443 517L517 486L591 506L665 510L738 487L812 516L886 497L960 500L960 541L886 541L812 541L738 541L665 541L591 541L517 541L443 541L369 541L295 541L222 541L148 541L74 541L0 541Z" fill="#870000"></path></svg>