<svg id="visual" viewBox="0 0 900 600" width="900" height="600" xmlns="http://www.w3.org/2000/svg" xmlns:xlink="http://www.w3.org/1999/xlink" version="1.1"><rect x="0" y="0" width="900" height="600" fill="#000000"></rect><path d="M0 221L12.5 238.7C25 256.3 50 291.7 75 313.8C100 336 125 345 150 369C175 393 200 432 225 409.2C250 386.3 275 301.7 300 282.7C325 263.7 350 310.3 375 312.8C400 315.3 425 273.7 450 280C475 286.3 500 340.7 525 369C550 397.3 575 399.7 600 377.2C625 354.7 650 307.3 675 311C700 314.7 725 369.3 750 378.7C775 388 800 352 825 346.2C850 340.3 875 364.7 887.5 376.8L900 389L900 601L887.5 601C875 601 850 601 825 601C800 601 775 601 750 601C725 601 700 601 675 601C650 601 625 601 600 601C575 601 550 601 525 601C500 601 475 601 450 601C425 601 400 601 375 601C350 601 325 601 300 601C275 601 250 601 225 601C200 601 175 601 150 601C125 601 100 601 75 601C50 601 25 601 12.5 601L0 601Z" fill="#ff1100"></path><path d="M0 426L12.5 420.5C25 415 50 404 75 417.3C100 430.7 125 468.3 150 453.8C175 439.3 200 372.7 225 338C250 303.3 275 300.7 300 332.3C325 364 350 430 375 457.8C400 485.7 425 475.3 450 473.2C475 471 500 477 525 453.3C550 429.7 575 376.3 600 344.5C625 312.7 650 302.3 675 331.2C700 360 725 428 750 426.5C775 425 800 354 825 327.2C850 300.3 875 317.7 887.5 326.3L900 335L900 601L887.5 601C875 601 850 601 825 601C800 601 775 601 750 601C725 601 700 601 675 601C650 601 625 601 600 601C575 601 550 601 525 601C500 601 475 601 450 601C425 601 400 601 375 601C350 601 325 601 300 601C275 601 250 601 225 601C200 601 175 601 150 601C125 601 100 601 75 601C50 601 25 601 12.5 601L0 601Z" fill="#ff4c00"></path><path d="M0 363L12.5 376.5C25 390 50 417 75 421.8C100 426.7 125 409.3 150 403.3C175 397.3 200 402.7 225 408.2C250 413.7 275 419.3 300 400.3C325 381.3 350 337.7 375 338.3C400 339 425 384 450 408.7C475 433.3 500 437.7 525 424.7C550 411.7 575 381.3 600 374.3C625 367.3 650 383.7 675 407.8C700 432 725 464 750 446.5C775 429 800 362 825 342.8C850 323.7 875 352.3 887.5 366.7L900 381L900 601L887.5 601C875 601 850 601 825 601C800 601 775 601 750 601C725 601 700 601 675 601C650 601 625 601 600 601C575 601 550 601 525 601C500 601 475 601 450 601C425 601 400 601 375 601C350 601 325 601 300 601C275 601 250 601 225 601C200 601 175 601 150 601C125 601 100 601 75 601C50 601 25 601 12.5 601L0 601Z" fill="#ff6d00"></path><path d="M0 501L12.5 501.3C25 501.7 50 502.3 75 505.7C100 509 125 515 150 510.3C175 505.7 200 490.3 225 468.8C250 447.3 275 419.7 300 412.5C325 405.3 350 418.7 375 427.5C400 436.3 425 440.7 450 455.3C475 470 500 495 525 495.3C550 495.7 575 471.3 600 446.8C625 422.3 650 397.7 675 381.3C700 365 725 357 750 370C775 383 800 417 825 423C850 429 875 407 887.5 396L900 385L900 601L887.5 601C875 601 850 601 825 601C800 601 775 601 750 601C725 601 700 601 675 601C650 601 625 601 600 601C575 601 550 601 525 601C500 601 475 601 450 601C425 601 400 601 375 601C350 601 325 601 300 601C275 601 250 601 225 601C200 601 175 601 150 601C125 601 100 601 75 601C50 601 25 601 12.5 601L0 601Z" fill="#ff8800"></path><path d="M0 417L12.5 434.2C25 451.3 50 485.7 75 481.2C100 476.7 125 433.3 150 424.2C175 415 200 440 225 451.8C250 463.7 275 462.3 300 474.3C325 486.3 350 511.7 375 509.5C400 507.3 425 477.7 450 453.8C475 430 500 412 525 423.5C550 435 575 476 600 480.5C625 485 650 453 675 443.2C700 433.3 725 445.7 750 460.3C775 475 800 492 825 478.3C850 464.7 875 420.3 887.5 398.2L900 376L900 601L887.5 601C875 601 850 601 825 601C800 601 775 601 750 601C725 601 700 601 675 601C650 601 625 601 600 601C575 601 550 601 525 601C500 601 475 601 450 601C425 601 400 601 375 601C350 601 325 601 300 601C275 601 250 601 225 601C200 601 175 601 150 601C125 601 100 601 75 601C50 601 25 601 12.5 601L0 601Z" fill="#ffa000"></path><path d="M0 468L12.5 476.2C25 484.3 50 500.7 75 504C100 507.3 125 497.7 150 491.3C175 485 200 482 225 491.8C250 501.7 275 524.3 300 514.8C325 505.3 350 463.7 375 449.8C400 436 425 450 450 461C475 472 500 480 525 490C550 500 575 512 600 508.5C625 505 650 486 675 487.5C700 489 725 511 750 505.5C775 500 800 467 825 456.3C850 445.7 875 457.3 887.5 463.2L900 469L900 601L887.5 601C875 601 850 601 825 601C800 601 775 601 750 601C725 601 700 601 675 601C650 601 625 601 600 601C575 601 550 601 525 601C500 601 475 601 450 601C425 601 400 601 375 601C350 601 325 601 300 601C275 601 250 601 225 601C200 601 175 601 150 601C125 601 100 601 75 601C50 601 25 601 12.5 601L0 601Z" fill="#ffb700"></path><path d="M0 513L12.5 521.7C25 530.3 50 547.7 75 540.8C100 534 125 503 150 501.7C175 500.3 200 528.7 225 539.2C250 549.7 275 542.3 300 529.5C325 516.7 350 498.3 375 502.8C400 507.3 425 534.7 450 541.8C475 549 500 536 525 531C550 526 575 529 600 531.3C625 533.7 650 535.3 675 540C700 544.7 725 552.3 750 539.7C775 527 800 494 825 491.2C850 488.3 875 515.7 887.5 529.3L900 543L900 601L887.5 601C875 601 850 601 825 601C800 601 775 601 750 601C725 601 700 601 675 601C650 601 625 601 600 601C575 601 550 601 525 601C500 601 475 601 450 601C425 601 400 601 375 601C350 601 325 601 300 601C275 601 250 601 225 601C200 601 175 601 150 601C125 601 100 601 75 601C50 601 25 601 12.5 601L0 601Z" fill="#ffcf00"></path><path d="M0 548L12.5 539.2C25 530.3 50 512.7 75 514.5C100 516.3 125 537.7 150 540.5C175 543.3 200 527.7 225 517.3C250 507 275 502 300 511.2C325 520.3 350 543.7 375 547.7C400 551.7 425 536.3 450 522.7C475 509 500 497 525 491.8C550 486.7 575 488.3 600 490.5C625 492.7 650 495.3 675 497.3C700 499.3 725 500.7 750 510C775 519.3 800 536.7 825 544.2C850 551.7 875 549.3 887.5 548.2L900 547L900 601L887.5 601C875 601 850 601 825 601C800 601 775 601 750 601C725 601 700 601 675 601C650 601 625 601 600 601C575 601 550 601 525 601C500 601 475 601 450 601C425 601 400 601 375 601C350 601 325 601 300 601C275 601 250 601 225 601C200 601 175 601 150 601C125 601 100 601 75 601C50 601 25 601 12.5 601L0 601Z" fill="#ffe700"></path><path d="M0 575L12.5 568.7C25 562.3 50 549.7 75 546C100 542.3 125 547.7 150 549.7C175 551.7 200 550.3 225 550.7C250 551 275 553 300 549.3C325 545.7 350 536.3 375 538.8C400 541.3 425 555.7 450 563.5C475 571.3 500 572.7 525 571.3C550 570 575 566 600 561.7C625 557.3 650 552.7 675 546.5C700 540.3 725 532.7 750 539.7C775 546.7 800 568.3 825 571.5C850 574.7 875 559.3 887.5 551.7L900 544L900 601L887.5 601C875 601 850 601 825 601C800 601 775 601 750 601C725 601 700 601 675 601C650 601 625 601 600 601C575 601 550 601 525 601C500 601 475 601 450 601C425 601 400 601 375 601C350 601 325 601 300 601C275 601 250 601 225 601C200 601 175 601 150 601C125 601 100 601 75 601C50 601 25 601 12.5 601L0 601Z" fill="#f8ff00"></path></svg>